<svg xmlns="http://www.w3.org/2000/svg" viewBox="0 0 400 280" fill="none">
  <rect width="400" height="280" rx="12" fill="#fafafa" />
  <rect x="0.5" y="0.5" width="399" height="279" rx="12" stroke="#e2e8f0" stroke-width="1" />
  <rect x="24" y="20" width="96" height="10" rx="5" fill="#e2e8f0" />
  <rect x="20" y="40" width="360" height="70" rx="8" fill="#f1f5f9" />
  <rect x="80" y="60" width="240" height="30" rx="6" fill="#e2e8f0" />
  <rect x="32" y="130" width="72" height="72" rx="8" fill="white" stroke="#e2e8f0" stroke-width="1" />
  <rect x="38" y="136" width="60" height="60" rx="6" fill="#f1f5f9" />
  <rect x="38" y="210" width="60" height="6" rx="3" fill="#e2e8f0" />
  <rect x="38" y="220" width="40" height="6" rx="3" fill="#e2e8f0" />
  <rect x="118" y="130" width="72" height="72" rx="8" fill="white" stroke="#e2e8f0" stroke-width="1" />
  <rect x="124" y="136" width="60" height="60" rx="6" fill="#f1f5f9" />
  <rect x="124" y="210" width="60" height="6" rx="3" fill="#e2e8f0" />
  <rect x="124" y="220" width="40" height="6" rx="3" fill="#e2e8f0" />
  <rect x="204" y="130" width="72" height="72" rx="8" fill="white" stroke="#e2e8f0" stroke-width="1" />
  <rect x="210" y="136" width="60" height="60" rx="6" fill="#f1f5f9" />
  <rect x="210" y="210" width="60" height="6" rx="3" fill="#e2e8f0" />
  <rect x="210" y="220" width="40" height="6" rx="3" fill="#e2e8f0" />
  <rect x="290" y="130" width="72" height="72" rx="8" fill="white" stroke="#e2e8f0" stroke-width="1" />
  <rect x="296" y="136" width="60" height="60" rx="6" fill="#f1f5f9" />
  <rect x="296" y="210" width="60" height="6" rx="3" fill="#e2e8f0" />
  <rect x="296" y="220" width="40" height="6" rx="3" fill="#e2e8f0" />
  <circle cx="20" cy="187" r="10" fill="white" stroke="#e2e8f0" stroke-width="1.5" />
  <path d="M23 184.5l-5 2.5 5 2.5" stroke="#64748b" stroke-width="1.5" stroke-linecap="round" stroke-linejoin="round" />
  <circle cx="380" cy="187" r="10" fill="white" stroke="#e2e8f0" stroke-width="1.5" />
  <path d="M377 184.5l5 2.5-5 2.5" stroke="#64748b" stroke-width="1.5" stroke-linecap="round" stroke-linejoin="round" />
</svg>
