<svg xmlns="http://www.w3.org/2000/svg" viewBox="0 0 400 280" fill="none">
  <rect width="400" height="280" rx="12" fill="#fafafa" />
  <rect x="0.5" y="0.5" width="399" height="279" rx="12" stroke="#e2e8f0" stroke-width="1" />
  <rect x="24" y="20" width="96" height="10" rx="5" fill="#e2e8f0" />
  <rect x="34" y="46" width="74" height="110" rx="8" fill="white" stroke="#e2e8f0" stroke-width="1" />
  <rect x="40" y="52" width="62" height="70" rx="6" fill="#f1f5f9" />
  <circle cx="71" cy="87" r="16" fill="#e2e8f0" />
  <path d="M67 84l4 6-4 6" stroke="#94a3b8" stroke-width="2" stroke-linecap="round" stroke-linejoin="round" />
  <rect x="48" y="130" width="46" height="6" rx="3" fill="#e2e8f0" />
  <rect x="54" y="140" width="34" height="6" rx="3" fill="#e2e8f0" />
  <rect x="120" y="46" width="74" height="110" rx="8" fill="white" stroke="#e2e8f0" stroke-width="1" />
  <rect x="126" y="52" width="62" height="70" rx="6" fill="#f1f5f9" />
  <circle cx="157" cy="87" r="16" fill="#e2e8f0" />
  <path d="M153 84l4 6-4 6" stroke="#94a3b8" stroke-width="2" stroke-linecap="round" stroke-linejoin="round" />
  <rect x="134" y="130" width="46" height="6" rx="3" fill="#e2e8f0" />
  <rect x="140" y="140" width="34" height="6" rx="3" fill="#e2e8f0" />
  <rect x="206" y="46" width="74" height="110" rx="8" fill="white" stroke="#e2e8f0" stroke-width="1" />
  <rect x="212" y="52" width="62" height="70" rx="6" fill="#f1f5f9" />
  <circle cx="243" cy="87" r="16" fill="#e2e8f0" />
  <path d="M239 84l4 6-4 6" stroke="#94a3b8" stroke-width="2" stroke-linecap="round" stroke-linejoin="round" />
  <rect x="220" y="130" width="46" height="6" rx="3" fill="#e2e8f0" />
  <rect x="226" y="140" width="34" height="6" rx="3" fill="#e2e8f0" />
  <rect x="292" y="46" width="74" height="110" rx="8" fill="white" stroke="#e2e8f0" stroke-width="1" />
  <rect x="298" y="52" width="62" height="70" rx="6" fill="#f1f5f9" />
  <circle cx="329" cy="87" r="16" fill="#e2e8f0" />
  <path d="M325 84l4 6-4 6" stroke="#94a3b8" stroke-width="2" stroke-linecap="round" stroke-linejoin="round" />
  <rect x="306" y="130" width="46" height="6" rx="3" fill="#e2e8f0" />
  <rect x="312" y="140" width="34" height="6" rx="3" fill="#e2e8f0" />
  <circle cx="22" cy="101" r="11" fill="white" stroke="#e2e8f0" stroke-width="1.5" />
  <path d="M25.5 98l-5 3 5 3" stroke="#64748b" stroke-width="1.5" stroke-linecap="round" stroke-linejoin="round" />
  <circle cx="378" cy="101" r="11" fill="white" stroke="#e2e8f0" stroke-width="1.5" />
  <path d="M374.5 98l5 3-5 3" stroke="#64748b" stroke-width="1.5" stroke-linecap="round" stroke-linejoin="round" />
</svg>
