<svg xmlns="http://www.w3.org/2000/svg" viewBox="0 0 400 280" fill="none">
  <rect width="400" height="280" rx="12" fill="#fafafa" />
  <rect x="0.5" y="0.5" width="399" height="279" rx="12" stroke="#e2e8f0" stroke-width="1" />
  <rect x="24" y="20" width="96" height="10" rx="5" fill="#e2e8f0" />
  <circle cx="76" cy="80" r="32" fill="#f1f5f9" />
  <circle cx="76" cy="80" r="16" fill="#e2e8f0" />
  <rect x="52" y="118" width="48" height="6" rx="3" fill="#cbd5e1" />
  <circle cx="156" cy="80" r="32" fill="#f1f5f9" />
  <circle cx="156" cy="80" r="16" fill="#e2e8f0" />
  <rect x="132" y="118" width="48" height="6" rx="3" fill="#cbd5e1" />
  <circle cx="236" cy="80" r="32" fill="#f1f5f9" />
  <circle cx="236" cy="80" r="16" fill="#e2e8f0" />
  <rect x="212" y="118" width="48" height="6" rx="3" fill="#cbd5e1" />
  <circle cx="316" cy="80" r="32" fill="#f1f5f9" />
  <circle cx="316" cy="80" r="16" fill="#e2e8f0" />
  <rect x="292" y="118" width="48" height="6" rx="3" fill="#cbd5e1" />
  <circle cx="76" cy="174" r="32" fill="#f1f5f9" />
  <circle cx="76" cy="174" r="16" fill="#e2e8f0" />
  <rect x="52" y="212" width="48" height="6" rx="3" fill="#cbd5e1" />
  <circle cx="156" cy="174" r="32" fill="#f1f5f9" />
  <circle cx="156" cy="174" r="16" fill="#e2e8f0" />
  <rect x="132" y="212" width="48" height="6" rx="3" fill="#cbd5e1" />
  <circle cx="236" cy="174" r="32" fill="#f1f5f9" />
  <circle cx="236" cy="174" r="16" fill="#e2e8f0" />
  <rect x="212" y="212" width="48" height="6" rx="3" fill="#cbd5e1" />
  <circle cx="316" cy="174" r="32" fill="#f1f5f9" />
  <circle cx="316" cy="174" r="16" fill="#e2e8f0" />
  <rect x="292" y="212" width="48" height="6" rx="3" fill="#cbd5e1" />
</svg>
