<svg xmlns="http://www.w3.org/2000/svg" viewBox="0 0 400 280" fill="none">
  <rect width="400" height="280" rx="12" fill="#fafafa" />
  <rect x="0.5" y="0.5" width="399" height="279" rx="12" stroke="#e2e8f0" stroke-width="1" />
  <rect x="24" y="20" width="96" height="10" rx="5" fill="#e2e8f0" />
  <rect x="44" y="48" width="64" height="64" rx="10" fill="#f1f5f9" />
  <rect x="56" y="64" width="40" height="32" rx="6" fill="#e2e8f0" />
  <rect x="52" y="120" width="48" height="6" rx="3" fill="#cbd5e1" />
  <rect x="124" y="48" width="64" height="64" rx="10" fill="#f1f5f9" />
  <rect x="136" y="64" width="40" height="32" rx="6" fill="#e2e8f0" />
  <rect x="132" y="120" width="48" height="6" rx="3" fill="#cbd5e1" />
  <rect x="204" y="48" width="64" height="64" rx="10" fill="#f1f5f9" />
  <rect x="216" y="64" width="40" height="32" rx="6" fill="#e2e8f0" />
  <rect x="212" y="120" width="48" height="6" rx="3" fill="#cbd5e1" />
  <rect x="284" y="48" width="64" height="64" rx="10" fill="#f1f5f9" />
  <rect x="296" y="64" width="40" height="32" rx="6" fill="#e2e8f0" />
  <rect x="292" y="120" width="48" height="6" rx="3" fill="#cbd5e1" />
  <rect x="44" y="142" width="64" height="64" rx="10" fill="#f1f5f9" />
  <rect x="56" y="158" width="40" height="32" rx="6" fill="#e2e8f0" />
  <rect x="52" y="214" width="48" height="6" rx="3" fill="#cbd5e1" />
  <rect x="124" y="142" width="64" height="64" rx="10" fill="#f1f5f9" />
  <rect x="136" y="158" width="40" height="32" rx="6" fill="#e2e8f0" />
  <rect x="132" y="214" width="48" height="6" rx="3" fill="#cbd5e1" />
  <rect x="204" y="142" width="64" height="64" rx="10" fill="#f1f5f9" />
  <rect x="216" y="158" width="40" height="32" rx="6" fill="#e2e8f0" />
  <rect x="212" y="214" width="48" height="6" rx="3" fill="#cbd5e1" />
  <rect x="284" y="142" width="64" height="64" rx="10" fill="#f1f5f9" />
  <rect x="296" y="158" width="40" height="32" rx="6" fill="#e2e8f0" />
  <rect x="292" y="214" width="48" height="6" rx="3" fill="#cbd5e1" />
</svg>
