<svg xmlns="http://www.w3.org/2000/svg" viewBox="0 0 400 280" fill="none">
  <rect width="400" height="280" rx="12" fill="#fafafa" />
  <rect x="0.5" y="0.5" width="399" height="279" rx="12" stroke="#e2e8f0" stroke-width="1" />
  <rect x="24" y="20" width="96" height="10" rx="5" fill="#e2e8f0" />
  <rect x="100" y="38" width="30" height="14" rx="4" fill="#fef2f2" stroke="#fecaca" stroke-width="1" />
  <text x="107" y="48" font-size="8" font-weight="700" fill="#ef4444" font-family="system-ui">24</text>
  <text x="135" y="48" font-size="10" font-weight="700" fill="#94a3b8" font-family="system-ui">:</text>
  <rect x="144" y="38" width="30" height="14" rx="4" fill="#fef2f2" stroke="#fecaca" stroke-width="1" />
  <text x="151" y="48" font-size="8" font-weight="700" fill="#ef4444" font-family="system-ui">12</text>
  <text x="179" y="48" font-size="10" font-weight="700" fill="#94a3b8" font-family="system-ui">:</text>
  <rect x="188" y="38" width="30" height="14" rx="4" fill="#fef2f2" stroke="#fecaca" stroke-width="1" />
  <text x="195" y="48" font-size="8" font-weight="700" fill="#ef4444" font-family="system-ui">45</text>
  <rect x="34" y="62" width="74" height="98" rx="8" fill="white" stroke="#e2e8f0" stroke-width="1" />
  <rect x="40" y="68" width="62" height="60" rx="6" fill="#f1f5f9" />
  <rect x="48" y="136" width="46" height="6" rx="3" fill="#e2e8f0" />
  <rect x="54" y="146" width="34" height="6" rx="3" fill="#e2e8f0" />
  <rect x="120" y="62" width="74" height="98" rx="8" fill="white" stroke="#e2e8f0" stroke-width="1" />
  <rect x="126" y="68" width="62" height="60" rx="6" fill="#f1f5f9" />
  <rect x="134" y="136" width="46" height="6" rx="3" fill="#e2e8f0" />
  <rect x="140" y="146" width="34" height="6" rx="3" fill="#e2e8f0" />
  <rect x="206" y="62" width="74" height="98" rx="8" fill="white" stroke="#e2e8f0" stroke-width="1" />
  <rect x="212" y="68" width="62" height="60" rx="6" fill="#f1f5f9" />
  <rect x="220" y="136" width="46" height="6" rx="3" fill="#e2e8f0" />
  <rect x="226" y="146" width="34" height="6" rx="3" fill="#e2e8f0" />
  <rect x="292" y="62" width="74" height="98" rx="8" fill="white" stroke="#e2e8f0" stroke-width="1" />
  <rect x="298" y="68" width="62" height="60" rx="6" fill="#f1f5f9" />
  <rect x="306" y="136" width="46" height="6" rx="3" fill="#e2e8f0" />
  <rect x="312" y="146" width="34" height="6" rx="3" fill="#e2e8f0" />
  <circle cx="22" cy="111" r="11" fill="white" stroke="#e2e8f0" stroke-width="1.5" />
  <path d="M25.5 108l-5 3 5 3" stroke="#64748b" stroke-width="1.5" stroke-linecap="round" stroke-linejoin="round" />
  <circle cx="378" cy="111" r="11" fill="white" stroke="#e2e8f0" stroke-width="1.5" />
  <path d="M374.5 108l5 3-5 3" stroke="#64748b" stroke-width="1.5" stroke-linecap="round" stroke-linejoin="round" />
</svg>
