<svg xmlns="http://www.w3.org/2000/svg" viewBox="0 0 400 280" fill="none">
  <rect width="400" height="280" rx="12" fill="#fafafa" />
  <rect x="0.5" y="0.5" width="399" height="279" rx="12" stroke="#e2e8f0" stroke-width="1" />
  <rect x="24" y="20" width="96" height="10" rx="5" fill="#e2e8f0" />
  <rect x="30" y="48" width="58" height="58" rx="8" fill="white" stroke="#e2e8f0" stroke-width="1" />
  <rect x="36" y="54" width="46" height="46" rx="6" fill="#f1f5f9" />
  <rect x="38" y="114" width="42" height="6" rx="3" fill="#e2e8f0" />
  <rect x="38" y="124" width="28" height="6" rx="3" fill="#e2e8f0" />
  <circle cx="76" cy="64" r="24" fill="#e2e8f0" />
  <path d="M70 61l6 7-6 7" stroke="#94a3b8" stroke-width="1.5" stroke-linecap="round" stroke-linejoin="round" />
  <rect x="98" y="48" width="58" height="58" rx="8" fill="white" stroke="#e2e8f0" stroke-width="1" />
  <rect x="104" y="54" width="46" height="46" rx="6" fill="#f1f5f9" />
  <rect x="106" y="114" width="42" height="6" rx="3" fill="#e2e8f0" />
  <rect x="106" y="124" width="28" height="6" rx="3" fill="#e2e8f0" />
  <circle cx="127" cy="77" r="4" fill="#2563eb" />
  <circle cx="137" cy="77" r="4" fill="#2563eb" />
  <rect x="166" y="48" width="58" height="58" rx="8" fill="white" stroke="#e2e8f0" stroke-width="1" />
  <rect x="172" y="54" width="46" height="46" rx="6" fill="#f1f5f9" />
  <rect x="174" y="114" width="42" height="6" rx="3" fill="#e2e8f0" />
  <rect x="174" y="124" width="28" height="6" rx="3" fill="#e2e8f0" />
  <circle cx="195" cy="77" r="4" fill="#2563eb" />
  <circle cx="205" cy="77" r="4" fill="#2563eb" />
  <rect x="234" y="48" width="58" height="58" rx="8" fill="white" stroke="#e2e8f0" stroke-width="1" />
  <rect x="240" y="54" width="46" height="46" rx="6" fill="#f1f5f9" />
  <rect x="242" y="114" width="42" height="6" rx="3" fill="#e2e8f0" />
  <rect x="242" y="124" width="28" height="6" rx="3" fill="#e2e8f0" />
  <circle cx="263" cy="77" r="4" fill="#2563eb" />
  <circle cx="273" cy="77" r="4" fill="#2563eb" />
  <rect x="302" y="48" width="58" height="58" rx="8" fill="white" stroke="#e2e8f0" stroke-width="1" />
  <rect x="308" y="54" width="46" height="46" rx="6" fill="#f1f5f9" />
  <rect x="310" y="114" width="42" height="6" rx="3" fill="#e2e8f0" />
  <rect x="310" y="124" width="28" height="6" rx="3" fill="#e2e8f0" />
  <circle cx="331" cy="77" r="4" fill="#2563eb" />
  <circle cx="341" cy="77" r="4" fill="#2563eb" />
  <circle cx="20" cy="91" r="10" fill="white" stroke="#e2e8f0" stroke-width="1.5" />
  <path d="M23 88.5l-5 2.5 5 2.5" stroke="#64748b" stroke-width="1.5" stroke-linecap="round" stroke-linejoin="round" />
  <circle cx="380" cy="91" r="10" fill="white" stroke="#e2e8f0" stroke-width="1.5" />
  <path d="M377 88.5l5 2.5-5 2.5" stroke="#64748b" stroke-width="1.5" stroke-linecap="round" stroke-linejoin="round" />
</svg>
