<svg xmlns="http://www.w3.org/2000/svg" viewBox="0 0 400 280" fill="none">
  <rect width="400" height="280" rx="12" fill="#fafafa" />
  <rect x="0.5" y="0.5" width="399" height="279" rx="12" stroke="#e2e8f0" stroke-width="1" />
  <rect x="24" y="20" width="96" height="10" rx="5" fill="#e2e8f0" />
  <rect x="20" y="44" width="360" height="186" rx="10" fill="#f1f5f9" />
  <rect x="80" y="82" width="240" height="48" rx="8" fill="#e2e8f0" />
  <rect x="120" y="140" width="160" height="8" rx="4" fill="#cbd5e1" />
  <rect x="150" y="155" width="100" height="8" rx="4" fill="#cbd5e1" />
  <circle cx="38" cy="137" r="14" fill="white" stroke="#cbd5e1" stroke-width="1.5" />
  <path d="M43 133.5l-7 3.5 7 3.5" stroke="#64748b" stroke-width="2" stroke-linecap="round" stroke-linejoin="round" />
  <circle cx="362" cy="137" r="14" fill="white" stroke="#cbd5e1" stroke-width="1.5" />
  <path d="M357 133.5l7 3.5-7 3.5" stroke="#64748b" stroke-width="2" stroke-linecap="round" stroke-linejoin="round" />
  <rect x="180" y="244" width="18" height="6" rx="3" fill="#2563eb" />
  <circle cx="206" cy="247" r="3" fill="#cbd5e1" />
  <circle cx="220" cy="247" r="3" fill="#cbd5e1" />
</svg>
